<?xml version="1.0" encoding="iso-8859-1"?>
<!-- Generator: Adobe Illustrator 19.0.0, SVG Export Plug-In . SVG Version: 6.00 Build 0)  -->
<svg version="1.1" id="Layer_1" xmlns="http://www.w3.org/2000/svg" xmlns:xlink="http://www.w3.org/1999/xlink" x="0px" y="0px"
	 viewBox="0 0 496 496" style="enable-background:new 0 0 496 496;" xml:space="preserve">
<g>
	<g>
		<path fill="#1077F5" d="M216,399.775v-286.4c0-27.2-25.6-51.2-54.4-51.2H46.4c-27.2,0-46.4,22.4-46.4,51.2v286.4c0,30.4,19.2,51.2,46.4,51.2
			h116.8C192,450.975,217.6,426.975,216,399.775z M184,401.375c0,9.6-11.2,19.2-22.4,19.2H46.4c-14.4,0-14.4-16-14.4-19.2v-286.4
			c0-3.2,0-19.2,14.4-19.2v-1.6h115.2c11.2,0,22.4,9.6,22.4,19.2V401.375z"/>
	</g>
</g>
<g>
	<g>
		<path fill="#1077F5" d="M320,198.175c-8-4.8-17.6-1.6-22.4,6.4l-110.4,206.4c-4.8,8-1.6,17.6,6.4,22.4c3.2,1.6,4.8,1.6,8,1.6
			c6.4,0,11.2-3.2,14.4-8l110.4-206.4C331.2,212.575,328,202.975,320,198.175z"/>
	</g>
</g>
<g>
	<g>
		<path fill="#1077F5" d="M356.8,138.975c-3.2-12.8-12.8-24-24-30.4L232,50.975c-22.4-11.2-49.6-6.4-65.6,12.8c-4.8,6.4-3.2,17.6,3.2,22.4
			c6.4,4.8,17.6,3.2,22.4-3.2c6.4-8,16-9.6,24-4.8l100.8,57.6c3.2,1.6,6.4,6.4,8,11.2c1.6,4.8,1.6,9.6-1.6,14.4
			c-3.2,8-1.6,17.6,6.4,22.4c3.2,1.6,4.8,1.6,8,1.6c4.8,0,9.6-3.2,14.4-8C358.4,166.175,360,151.775,356.8,138.975z"/>
	</g>
</g>
<g>
	<g>
		<path fill="#1077F5" d="M398.4,305.375c-4.8-8-14.4-11.2-22.4-6.4l-201.6,116.8c-8,4.8-11.2,14.4-6.4,22.4c3.2,4.8,9.6,8,14.4,8
			c1.6,0,4.8,0,8-1.6l201.6-116.8C400,322.975,403.2,313.375,398.4,305.375z"/>
	</g>
</g>
<g>
	<g>
		<path fill="#1077F5" d="M456,231.775l-57.6-100.8c-11.2-19.2-33.6-28.8-56-24c-3.2,1.6-4.8,1.6-8,3.2c-8,3.2-11.2,12.8-8,20.8
			c3.2,8,12.8,11.2,20.8,8c1.6-1.6,1.6-1.6,3.2-1.6c8-1.6,16,1.6,20.8,9.6l57.6,100.8c6.4,9.6,3.2,20.8-6.4,25.6
			c-8,4.8-11.2,14.4-6.4,22.4c3.2,4.8,9.6,8,14.4,8c1.6,0,4.8-1.6,6.4-3.2C462.4,287.775,470.4,255.775,456,231.775z"/>
	</g>
</g>
<g>
	<g>
		<path fill="#1077F5" d="M480,326.175c-9.6,0-16,6.4-16,16v57.6c0,9.6-12.8,19.2-24,19.2H155.2c-9.6,0-16,6.4-16,16c0,9.6,6.4,16,16,16H440
			c25.6,0,56-22.4,56-51.2v-57.6C496,332.575,489.6,326.175,480,326.175z"/>
	</g>
</g>
<g>
	<g>
		<path fill="#1077F5" d="M476.8,244.575c-6.4-4.8-17.6-3.2-22.4,3.2c-4.8,6.4-3.2,17.6,3.2,22.4c3.2,3.2,6.4,8,6.4,14.4v57.6c0,9.6,6.4,16,16,16
			c8,0,16-8,16-16v-57.6C496,268.575,489.6,254.175,476.8,244.575z"/>
	</g>
</g>
<g>
	<g>
		<path fill="#1077F5" d="M160,375.775c-6.4-6.4-16-6.4-22.4,0c-3.2,3.2-4.8,6.4-4.8,11.2c0,3.2,1.6,8,4.8,11.2c3.2,3.2,6.4,4.8,11.2,4.8
			c3.2,0,8-1.6,11.2-4.8s4.8-6.4,4.8-11.2S163.2,378.975,160,375.775z"/>
	</g>
</g>
<g>
</g>
<g>
</g>
<g>
</g>
<g>
</g>
<g>
</g>
<g>
</g>
<g>
</g>
<g>
</g>
<g>
</g>
<g>
</g>
<g>
</g>
<g>
</g>
<g>
</g>
<g>
</g>
<g>
</g>
</svg>
