<svg width="351" height="324" viewBox="0 0 351 324" fill="none" xmlns="http://www.w3.org/2000/svg">
<rect width="351" height="324" rx="17" fill="#3694FF"/>
<path d="M165.925 242.777V276H46.877V242.777H165.925ZM59.7969 52.0547V276H17.4995V52.0547H59.7969ZM150.39 144.494V176.947H46.877V144.494H150.39ZM165.463 52.0547V85.4312H46.877V52.0547H165.463ZM232.062 145.109V276H191.457V109.579H229.602L232.062 145.109ZM225.603 186.791H213.605C213.708 174.691 215.349 163.72 218.527 153.876C221.706 144.032 226.167 135.573 231.909 128.498C237.753 121.422 244.675 115.988 252.673 112.194C260.671 108.4 269.592 106.503 279.436 106.503C287.434 106.503 294.663 107.631 301.123 109.887C307.583 112.143 313.12 115.731 317.734 120.653C322.451 125.575 326.04 132.035 328.5 140.033C331.064 147.929 332.346 157.67 332.346 169.257V276H291.433V168.949C291.433 161.361 290.305 155.363 288.049 150.954C285.896 146.544 282.717 143.417 278.513 141.571C274.411 139.726 269.335 138.803 263.286 138.803C257.031 138.803 251.545 140.084 246.828 142.648C242.214 145.109 238.317 148.544 235.139 152.953C232.062 157.362 229.704 162.438 228.063 168.18C226.423 173.922 225.603 180.126 225.603 186.791Z" fill="white"/>
</svg>
