<svg width="1200" height="675" viewBox="0 0 1200 675" fill="none" xmlns="http://www.w3.org/2000/svg">
<g clip-path="url(#clip0_0_1)">
<rect width="1200" height="675" fill="black"/>
</g>
<g filter="url(#filter0_d_0_1)">
<path d="M576.261 492.758C583.318 503.985 599.682 503.985 606.739 492.758L797.165 189.83C804.7 177.842 796.084 162.25 781.925 162.25H401.075C386.916 162.25 378.3 177.842 385.835 189.83L576.261 492.758Z" fill="#3694FF"/>
</g>
<path d="M252.912 372V241.091H338.054V260.97H276.626V296.51H333.643V316.389H276.626V352.121H338.565V372H252.912ZM384.364 314.472V372H361.225V273.818H383.342V290.501H384.492C386.751 285.004 390.352 280.636 395.295 277.398C400.281 274.159 406.438 272.54 413.768 272.54C420.543 272.54 426.445 273.989 431.474 276.886C436.545 279.784 440.465 283.982 443.235 289.479C446.048 294.976 447.433 301.645 447.39 309.486V372H424.251V313.065C424.251 306.503 422.546 301.368 419.137 297.661C415.771 293.953 411.104 292.099 405.138 292.099C401.09 292.099 397.489 292.994 394.336 294.784C391.225 296.531 388.775 299.067 386.985 302.391C385.238 305.714 384.364 309.741 384.364 314.472ZM513.612 410.864C505.302 410.864 498.164 409.734 492.198 407.476C486.232 405.26 481.438 402.277 477.816 398.527C474.194 394.777 471.68 390.622 470.273 386.062L491.112 381.013C492.049 382.93 493.413 384.827 495.202 386.702C496.992 388.619 499.4 390.196 502.425 391.432C505.494 392.71 509.35 393.349 513.995 393.349C520.558 393.349 525.991 391.751 530.295 388.555C534.599 385.402 536.751 380.203 536.751 372.959V354.358H535.6C534.407 356.744 532.66 359.195 530.359 361.709C528.1 364.223 525.096 366.332 521.346 368.037C517.638 369.741 512.972 370.594 507.347 370.594C499.805 370.594 492.965 368.825 486.829 365.288C480.735 361.709 475.877 356.382 472.255 349.308C468.675 342.192 466.886 333.286 466.886 322.589C466.886 311.808 468.675 302.71 472.255 295.295C475.877 287.838 480.756 282.192 486.893 278.357C493.029 274.479 499.869 272.54 507.411 272.54C513.164 272.54 517.894 273.52 521.602 275.48C525.352 277.398 528.335 279.72 530.55 282.447C532.766 285.132 534.45 287.668 535.6 290.054H536.879V273.818H559.698V373.598C559.698 381.993 557.695 388.939 553.69 394.436C549.684 399.933 544.208 404.045 537.262 406.773C530.316 409.5 522.433 410.864 513.612 410.864ZM513.803 352.44C518.704 352.44 522.88 351.247 526.332 348.861C529.783 346.474 532.404 343.044 534.194 338.57C535.984 334.095 536.879 328.726 536.879 322.462C536.879 316.283 535.984 310.871 534.194 306.226C532.447 301.581 529.847 297.98 526.396 295.423C522.987 292.824 518.789 291.524 513.803 291.524C508.647 291.524 504.343 292.866 500.891 295.551C497.44 298.236 494.84 301.922 493.093 306.609C491.346 311.254 490.472 316.538 490.472 322.462C490.472 328.47 491.346 333.733 493.093 338.25C494.883 342.724 497.504 346.219 500.955 348.733C504.45 351.205 508.732 352.44 513.803 352.44ZM583.413 372V273.818H605.849V290.182H606.871C608.661 284.514 611.729 280.146 616.076 277.078C620.465 273.967 625.472 272.412 631.097 272.412C632.376 272.412 633.803 272.476 635.38 272.604C636.999 272.689 638.342 272.838 639.407 273.051V294.337C638.427 293.996 636.871 293.697 634.741 293.442C632.653 293.143 630.629 292.994 628.668 292.994C624.45 292.994 620.657 293.911 617.29 295.743C613.967 297.533 611.346 300.026 609.428 303.222C607.511 306.418 606.552 310.104 606.552 314.28V372H583.413ZM681.275 373.982C675.053 373.982 669.45 372.874 664.464 370.658C659.521 368.399 655.6 365.075 652.702 360.686C649.847 356.297 648.42 350.885 648.42 344.45C648.42 338.911 649.442 334.33 651.488 330.707C653.533 327.085 656.325 324.188 659.862 322.014C663.398 319.841 667.383 318.2 671.815 317.092C676.289 315.942 680.913 315.111 685.685 314.599C691.438 314.003 696.104 313.47 699.684 313.001C703.263 312.49 705.863 311.723 707.482 310.7C709.144 309.635 709.975 307.994 709.975 305.778V305.395C709.975 300.58 708.548 296.851 705.692 294.209C702.837 291.567 698.725 290.246 693.356 290.246C687.688 290.246 683.192 291.482 679.869 293.953C676.587 296.425 674.371 299.344 673.221 302.71L651.616 299.642C653.32 293.676 656.133 288.69 660.053 284.685C663.974 280.636 668.768 277.611 674.435 275.608C680.103 273.562 686.367 272.54 693.228 272.54C697.958 272.54 702.667 273.094 707.354 274.202C712.042 275.31 716.325 277.142 720.202 279.699C724.08 282.213 727.191 285.643 729.535 289.99C731.921 294.337 733.114 299.77 733.114 306.29V372H710.87V358.513H710.103C708.697 361.24 706.715 363.797 704.158 366.183C701.644 368.527 698.469 370.423 694.634 371.872C690.842 373.278 686.388 373.982 681.275 373.982ZM687.283 356.979C691.928 356.979 695.955 356.062 699.364 354.23C702.773 352.355 705.394 349.884 707.227 346.815C709.102 343.747 710.039 340.402 710.039 336.78V325.21C709.315 325.807 708.079 326.361 706.332 326.872C704.627 327.384 702.71 327.831 700.579 328.214C698.448 328.598 696.339 328.939 694.251 329.237C692.163 329.536 690.352 329.791 688.817 330.004C685.366 330.473 682.276 331.24 679.549 332.305C676.822 333.371 674.67 334.862 673.093 336.78C671.516 338.655 670.728 341.084 670.728 344.067C670.728 348.328 672.283 351.545 675.394 353.719C678.505 355.892 682.468 356.979 687.283 356.979ZM806.112 273.818V291.716H748.072V273.818H806.112ZM762.582 372V264.55C762.582 257.945 763.945 252.447 766.673 248.058C769.442 243.669 773.15 240.388 777.795 238.214C782.44 236.041 787.596 234.955 793.263 234.955C797.269 234.955 800.827 235.274 803.938 235.913C807.049 236.553 809.35 237.128 810.842 237.639L806.239 255.537C805.259 255.239 804.023 254.94 802.532 254.642C801.04 254.301 799.379 254.131 797.546 254.131C793.242 254.131 790.195 255.175 788.406 257.263C786.658 259.308 785.785 262.249 785.785 266.084V372H762.582ZM824.233 372V273.818H847.372V372H824.233ZM835.866 259.884C832.202 259.884 829.048 258.669 826.406 256.24C823.764 253.768 822.443 250.807 822.443 247.355C822.443 243.861 823.764 240.899 826.406 238.47C829.048 235.999 832.202 234.763 835.866 234.763C839.574 234.763 842.727 235.999 845.327 238.47C847.969 240.899 849.29 243.861 849.29 247.355C849.29 250.807 847.969 253.768 845.327 256.24C842.727 258.669 839.574 259.884 835.866 259.884ZM899.419 373.982C893.198 373.982 887.594 372.874 882.608 370.658C877.665 368.399 873.745 365.075 870.847 360.686C867.992 356.297 866.564 350.885 866.564 344.45C866.564 338.911 867.587 334.33 869.632 330.707C871.678 327.085 874.469 324.188 878.006 322.014C881.543 319.841 885.527 318.2 889.959 317.092C894.434 315.942 899.057 315.111 903.83 314.599C909.583 314.003 914.249 313.47 917.828 313.001C921.408 312.49 924.007 311.723 925.627 310.7C927.289 309.635 928.12 307.994 928.12 305.778V305.395C928.12 300.58 926.692 296.851 923.837 294.209C920.982 291.567 916.87 290.246 911.5 290.246C905.833 290.246 901.337 291.482 898.013 293.953C894.732 296.425 892.516 299.344 891.365 302.71L869.76 299.642C871.465 293.676 874.277 288.69 878.198 284.685C882.118 280.636 886.912 277.611 892.58 275.608C898.248 273.562 904.512 272.54 911.373 272.54C916.103 272.54 920.811 273.094 925.499 274.202C930.186 275.31 934.469 277.142 938.347 279.699C942.225 282.213 945.336 285.643 947.679 289.99C950.066 294.337 951.259 299.77 951.259 306.29V372H929.015V358.513H928.248C926.841 361.24 924.86 363.797 922.303 366.183C919.789 368.527 916.614 370.423 912.779 371.872C908.986 373.278 904.533 373.982 899.419 373.982ZM905.428 356.979C910.073 356.979 914.1 356.062 917.509 354.23C920.918 352.355 923.539 349.884 925.371 346.815C927.246 343.747 928.184 340.402 928.184 336.78V325.21C927.459 325.807 926.223 326.361 924.476 326.872C922.772 327.384 920.854 327.831 918.723 328.214C916.593 328.598 914.483 328.939 912.395 329.237C910.307 329.536 908.496 329.791 906.962 330.004C903.51 330.473 900.421 331.24 897.694 332.305C894.966 333.371 892.814 334.862 891.238 336.78C889.661 338.655 888.873 341.084 888.873 344.067C888.873 348.328 890.428 351.545 893.539 353.719C896.65 355.892 900.613 356.979 905.428 356.979Z" fill="#3694FF"/>
<path d="M514.588 410.864C506.278 410.864 499.141 409.734 493.175 407.476C487.209 405.26 482.415 402.277 478.793 398.527C475.17 394.777 472.656 390.622 471.25 386.062L492.088 381.013C493.026 382.93 494.389 384.827 496.179 386.702C497.969 388.619 500.376 390.196 503.402 391.432C506.47 392.71 510.327 393.349 514.972 393.349C521.534 393.349 526.967 391.751 531.271 388.555C535.575 385.402 537.727 380.203 537.727 372.959V354.358H536.577C535.384 356.744 533.636 359.195 531.335 361.709C529.077 364.223 526.072 366.332 522.322 368.037C518.615 369.741 513.949 370.594 508.324 370.594C500.781 370.594 493.942 368.825 487.805 365.288C481.712 361.709 476.854 356.382 473.232 349.308C469.652 342.192 467.862 333.286 467.862 322.589C467.862 311.808 469.652 302.71 473.232 295.295C476.854 287.838 481.733 282.192 487.869 278.357C494.006 274.479 500.845 272.54 508.388 272.54C514.141 272.54 518.871 273.52 522.578 275.48C526.328 277.398 529.311 279.72 531.527 282.447C533.743 285.132 535.426 287.668 536.577 290.054H537.855V273.818H560.675V373.598C560.675 381.993 558.672 388.939 554.666 394.436C550.661 399.933 545.185 404.045 538.239 406.773C531.293 409.5 523.409 410.864 514.588 410.864ZM514.78 352.44C519.68 352.44 523.857 351.247 527.308 348.861C530.76 346.474 533.381 343.044 535.17 338.57C536.96 334.095 537.855 328.726 537.855 322.462C537.855 316.283 536.96 310.871 535.17 306.226C533.423 301.581 530.824 297.98 527.372 295.423C523.963 292.824 519.766 291.524 514.78 291.524C509.624 291.524 505.32 292.866 501.868 295.551C498.416 298.236 495.817 301.922 494.07 306.609C492.322 311.254 491.449 316.538 491.449 322.462C491.449 328.47 492.322 333.733 494.07 338.25C495.859 342.724 498.48 346.219 501.932 348.733C505.426 351.205 509.709 352.44 514.78 352.44ZM584.389 372V273.818H606.825V290.182H607.848C609.638 284.514 612.706 280.146 617.053 277.078C621.442 273.967 626.449 272.412 632.074 272.412C633.352 272.412 634.78 272.476 636.357 272.604C637.976 272.689 639.318 272.838 640.384 273.051V294.337C639.403 293.996 637.848 293.697 635.717 293.442C633.629 293.143 631.605 292.994 629.645 292.994C625.426 292.994 621.634 293.911 618.267 295.743C614.943 297.533 612.322 300.026 610.405 303.222C608.487 306.418 607.528 310.104 607.528 314.28V372H584.389ZM682.251 373.982C676.03 373.982 670.426 372.874 665.44 370.658C660.497 368.399 656.577 365.075 653.679 360.686C650.824 356.297 649.396 350.885 649.396 344.45C649.396 338.911 650.419 334.33 652.464 330.707C654.51 327.085 657.301 324.188 660.838 322.014C664.375 319.841 668.359 318.2 672.791 317.092C677.266 315.942 681.889 315.111 686.662 314.599C692.415 314.003 697.081 313.47 700.661 313.001C704.24 312.49 706.839 311.723 708.459 310.7C710.121 309.635 710.952 307.994 710.952 305.778V305.395C710.952 300.58 709.524 296.851 706.669 294.209C703.814 291.567 699.702 290.246 694.332 290.246C688.665 290.246 684.169 291.482 680.845 293.953C677.564 296.425 675.348 299.344 674.197 302.71L652.592 299.642C654.297 293.676 657.109 288.69 661.03 284.685C664.95 280.636 669.744 277.611 675.412 275.608C681.08 273.562 687.344 272.54 694.205 272.54C698.935 272.54 703.643 273.094 708.331 274.202C713.018 275.31 717.301 277.142 721.179 279.699C725.057 282.213 728.168 285.643 730.511 289.99C732.898 294.337 734.091 299.77 734.091 306.29V372H711.847V358.513H711.08C709.673 361.24 707.692 363.797 705.135 366.183C702.621 368.527 699.446 370.423 695.611 371.872C691.818 373.278 687.365 373.982 682.251 373.982ZM688.26 356.979C692.905 356.979 696.932 356.062 700.341 354.23C703.75 352.355 706.371 349.884 708.203 346.815C710.078 343.747 711.016 340.402 711.016 336.78V325.21C710.291 325.807 709.055 326.361 707.308 326.872C705.604 327.384 703.686 327.831 701.555 328.214C699.425 328.598 697.315 328.939 695.227 329.237C693.139 329.536 691.328 329.791 689.794 330.004C686.342 330.473 683.253 331.24 680.526 332.305C677.798 333.371 675.646 334.862 674.07 336.78C672.493 338.655 671.705 341.084 671.705 344.067C671.705 348.328 673.26 351.545 676.371 353.719C679.482 355.892 683.445 356.979 688.26 356.979Z" fill="white"/>
<defs>
<filter id="filter0_d_0_1" x="379.046" y="162.25" width="424.909" height="346.928" filterUnits="userSpaceOnUse" color-interpolation-filters="sRGB">
<feFlood flood-opacity="0" result="BackgroundImageFix"/>
<feColorMatrix in="SourceAlpha" type="matrix" values="0 0 0 0 0 0 0 0 0 0 0 0 0 0 0 0 0 0 127 0" result="hardAlpha"/>
<feOffset dy="4"/>
<feGaussianBlur stdDeviation="2"/>
<feComposite in2="hardAlpha" operator="out"/>
<feColorMatrix type="matrix" values="0 0 0 0 0 0 0 0 0 0 0 0 0 0 0 0 0 0 0.25 0"/>
<feBlend mode="normal" in2="BackgroundImageFix" result="effect1_dropShadow_0_1"/>
<feBlend mode="normal" in="SourceGraphic" in2="effect1_dropShadow_0_1" result="shape"/>
</filter>
<clipPath id="clip0_0_1">
<rect width="1200" height="675" fill="white"/>
</clipPath>
</defs>
</svg>
