<svg width="840" height="435" viewBox="0 0 840 435" fill="none" xmlns="http://www.w3.org/2000/svg">
<rect width="840" height="435" fill="black"/>
<g filter="url(#filter0_d_0_1)">
<path d="M413.192 308.967C416.318 314.032 423.682 314.032 426.808 308.967L526.786 146.951C530.075 141.621 526.241 134.75 519.978 134.75H320.022C313.759 134.75 309.925 141.621 313.214 146.951L413.192 308.967Z" fill="#3694FF"/>
</g>
<path d="M237.886 239V169.182H283.295V179.784H250.534V198.739H280.943V209.341H250.534V228.398H283.568V239H237.886ZM307.994 208.318V239H295.653V186.636H307.449V195.534H308.062C309.267 192.602 311.188 190.273 313.824 188.545C316.483 186.818 319.767 185.955 323.676 185.955C327.29 185.955 330.438 186.727 333.119 188.273C335.824 189.818 337.915 192.057 339.392 194.989C340.892 197.92 341.631 201.477 341.608 205.659V239H329.267V207.568C329.267 204.068 328.358 201.33 326.54 199.352C324.744 197.375 322.256 196.386 319.074 196.386C316.915 196.386 314.994 196.864 313.312 197.818C311.653 198.75 310.347 200.102 309.392 201.875C308.46 203.648 307.994 205.795 307.994 208.318ZM376.926 259.727C372.494 259.727 368.688 259.125 365.506 257.92C362.324 256.739 359.767 255.148 357.835 253.148C355.903 251.148 354.562 248.932 353.812 246.5L364.926 243.807C365.426 244.83 366.153 245.841 367.108 246.841C368.063 247.864 369.347 248.705 370.96 249.364C372.597 250.045 374.653 250.386 377.131 250.386C380.631 250.386 383.528 249.534 385.824 247.83C388.119 246.148 389.267 243.375 389.267 239.511V229.591H388.653C388.017 230.864 387.085 232.17 385.858 233.511C384.653 234.852 383.051 235.977 381.051 236.886C379.074 237.795 376.585 238.25 373.585 238.25C369.562 238.25 365.915 237.307 362.642 235.42C359.392 233.511 356.801 230.67 354.869 226.898C352.96 223.102 352.006 218.352 352.006 212.648C352.006 206.898 352.96 202.045 354.869 198.091C356.801 194.114 359.403 191.102 362.676 189.057C365.949 186.989 369.597 185.955 373.619 185.955C376.688 185.955 379.21 186.477 381.188 187.523C383.188 188.545 384.778 189.784 385.96 191.239C387.142 192.67 388.04 194.023 388.653 195.295H389.335V186.636H401.506V239.852C401.506 244.33 400.438 248.034 398.301 250.966C396.165 253.898 393.244 256.091 389.54 257.545C385.835 259 381.631 259.727 376.926 259.727ZM377.028 228.568C379.642 228.568 381.869 227.932 383.71 226.659C385.551 225.386 386.949 223.557 387.903 221.17C388.858 218.784 389.335 215.92 389.335 212.58C389.335 209.284 388.858 206.398 387.903 203.92C386.972 201.443 385.585 199.523 383.744 198.159C381.926 196.773 379.688 196.08 377.028 196.08C374.278 196.08 371.983 196.795 370.142 198.227C368.301 199.659 366.915 201.625 365.983 204.125C365.051 206.602 364.585 209.42 364.585 212.58C364.585 215.784 365.051 218.591 365.983 221C366.938 223.386 368.335 225.25 370.176 226.591C372.04 227.909 374.324 228.568 377.028 228.568ZM414.153 239V186.636H426.119V195.364H426.665C427.619 192.341 429.256 190.011 431.574 188.375C433.915 186.716 436.585 185.886 439.585 185.886C440.267 185.886 441.028 185.92 441.869 185.989C442.733 186.034 443.449 186.114 444.017 186.227V197.58C443.494 197.398 442.665 197.239 441.528 197.102C440.415 196.943 439.335 196.864 438.29 196.864C436.04 196.864 434.017 197.352 432.222 198.33C430.449 199.284 429.051 200.614 428.028 202.318C427.006 204.023 426.494 205.989 426.494 208.216V239H414.153ZM466.347 240.057C463.028 240.057 460.04 239.466 457.381 238.284C454.744 237.08 452.653 235.307 451.108 232.966C449.585 230.625 448.824 227.739 448.824 224.307C448.824 221.352 449.369 218.909 450.46 216.977C451.551 215.045 453.04 213.5 454.926 212.341C456.813 211.182 458.938 210.307 461.301 209.716C463.688 209.102 466.153 208.659 468.699 208.386C471.767 208.068 474.256 207.784 476.165 207.534C478.074 207.261 479.46 206.852 480.324 206.307C481.21 205.739 481.653 204.864 481.653 203.682V203.477C481.653 200.909 480.892 198.92 479.369 197.511C477.847 196.102 475.653 195.398 472.79 195.398C469.767 195.398 467.369 196.057 465.597 197.375C463.847 198.693 462.665 200.25 462.051 202.045L450.528 200.409C451.438 197.227 452.938 194.568 455.028 192.432C457.119 190.273 459.676 188.659 462.699 187.591C465.722 186.5 469.063 185.955 472.722 185.955C475.244 185.955 477.756 186.25 480.256 186.841C482.756 187.432 485.04 188.409 487.108 189.773C489.176 191.114 490.835 192.943 492.085 195.261C493.358 197.58 493.994 200.477 493.994 203.955V239H482.131V231.807H481.722C480.972 233.261 479.915 234.625 478.551 235.898C477.21 237.148 475.517 238.159 473.472 238.932C471.449 239.682 469.074 240.057 466.347 240.057ZM469.551 230.989C472.028 230.989 474.176 230.5 475.994 229.523C477.813 228.523 479.21 227.205 480.188 225.568C481.188 223.932 481.688 222.148 481.688 220.216V214.045C481.301 214.364 480.642 214.659 479.71 214.932C478.801 215.205 477.778 215.443 476.642 215.648C475.506 215.852 474.381 216.034 473.267 216.193C472.153 216.352 471.188 216.489 470.369 216.602C468.528 216.852 466.881 217.261 465.426 217.83C463.972 218.398 462.824 219.193 461.983 220.216C461.142 221.216 460.722 222.511 460.722 224.102C460.722 226.375 461.551 228.091 463.21 229.25C464.869 230.409 466.983 230.989 469.551 230.989ZM532.926 186.636V196.182H501.972V186.636H532.926ZM509.71 239V181.693C509.71 178.17 510.438 175.239 511.892 172.898C513.369 170.557 515.347 168.807 517.824 167.648C520.301 166.489 523.051 165.909 526.074 165.909C528.21 165.909 530.108 166.08 531.767 166.42C533.426 166.761 534.653 167.068 535.449 167.341L532.994 176.886C532.472 176.727 531.812 176.568 531.017 176.409C530.222 176.227 529.335 176.136 528.358 176.136C526.062 176.136 524.438 176.693 523.483 177.807C522.551 178.898 522.085 180.466 522.085 182.511V239H509.71ZM542.591 239V186.636H554.932V239H542.591ZM548.795 179.205C546.841 179.205 545.159 178.557 543.75 177.261C542.341 175.943 541.636 174.364 541.636 172.523C541.636 170.659 542.341 169.08 543.75 167.784C545.159 166.466 546.841 165.807 548.795 165.807C550.773 165.807 552.455 166.466 553.841 167.784C555.25 169.08 555.955 170.659 555.955 172.523C555.955 174.364 555.25 175.943 553.841 177.261C552.455 178.557 550.773 179.205 548.795 179.205ZM582.69 240.057C579.372 240.057 576.384 239.466 573.724 238.284C571.088 237.08 568.997 235.307 567.452 232.966C565.929 230.625 565.168 227.739 565.168 224.307C565.168 221.352 565.713 218.909 566.804 216.977C567.895 215.045 569.384 213.5 571.27 212.341C573.156 211.182 575.281 210.307 577.645 209.716C580.031 209.102 582.497 208.659 585.043 208.386C588.111 208.068 590.599 207.784 592.509 207.534C594.418 207.261 595.804 206.852 596.668 206.307C597.554 205.739 597.997 204.864 597.997 203.682V203.477C597.997 200.909 597.236 198.92 595.713 197.511C594.19 196.102 591.997 195.398 589.134 195.398C586.111 195.398 583.713 196.057 581.94 197.375C580.19 198.693 579.009 200.25 578.395 202.045L566.872 200.409C567.781 197.227 569.281 194.568 571.372 192.432C573.463 190.273 576.02 188.659 579.043 187.591C582.065 186.5 585.406 185.955 589.065 185.955C591.588 185.955 594.099 186.25 596.599 186.841C599.099 187.432 601.384 188.409 603.452 189.773C605.52 191.114 607.179 192.943 608.429 195.261C609.702 197.58 610.338 200.477 610.338 203.955V239H598.474V231.807H598.065C597.315 233.261 596.259 234.625 594.895 235.898C593.554 237.148 591.861 238.159 589.815 238.932C587.793 239.682 585.418 240.057 582.69 240.057ZM585.895 230.989C588.372 230.989 590.52 230.5 592.338 229.523C594.156 228.523 595.554 227.205 596.531 225.568C597.531 223.932 598.031 222.148 598.031 220.216V214.045C597.645 214.364 596.986 214.659 596.054 214.932C595.145 215.205 594.122 215.443 592.986 215.648C591.849 215.852 590.724 216.034 589.611 216.193C588.497 216.352 587.531 216.489 586.713 216.602C584.872 216.852 583.224 217.261 581.77 217.83C580.315 218.398 579.168 219.193 578.327 220.216C577.486 221.216 577.065 222.511 577.065 224.102C577.065 226.375 577.895 228.091 579.554 229.25C581.213 230.409 583.327 230.989 585.895 230.989Z" fill="#3694FF"/>
<path d="M377.114 259.727C372.682 259.727 368.875 259.125 365.693 257.92C362.511 256.739 359.955 255.148 358.023 253.148C356.091 251.148 354.75 248.932 354 246.5L365.114 243.807C365.614 244.83 366.341 245.841 367.295 246.841C368.25 247.864 369.534 248.705 371.148 249.364C372.784 250.045 374.841 250.386 377.318 250.386C380.818 250.386 383.716 249.534 386.011 247.83C388.307 246.148 389.455 243.375 389.455 239.511V229.591H388.841C388.205 230.864 387.273 232.17 386.045 233.511C384.841 234.852 383.239 235.977 381.239 236.886C379.261 237.795 376.773 238.25 373.773 238.25C369.75 238.25 366.102 237.307 362.83 235.42C359.58 233.511 356.989 230.67 355.057 226.898C353.148 223.102 352.193 218.352 352.193 212.648C352.193 206.898 353.148 202.045 355.057 198.091C356.989 194.114 359.591 191.102 362.864 189.057C366.136 186.989 369.784 185.955 373.807 185.955C376.875 185.955 379.398 186.477 381.375 187.523C383.375 188.545 384.966 189.784 386.148 191.239C387.33 192.67 388.227 194.023 388.841 195.295H389.523V186.636H401.693V239.852C401.693 244.33 400.625 248.034 398.489 250.966C396.352 253.898 393.432 256.091 389.727 257.545C386.023 259 381.818 259.727 377.114 259.727ZM377.216 228.568C379.83 228.568 382.057 227.932 383.898 226.659C385.739 225.386 387.136 223.557 388.091 221.17C389.045 218.784 389.523 215.92 389.523 212.58C389.523 209.284 389.045 206.398 388.091 203.92C387.159 201.443 385.773 199.523 383.932 198.159C382.114 196.773 379.875 196.08 377.216 196.08C374.466 196.08 372.17 196.795 370.33 198.227C368.489 199.659 367.102 201.625 366.17 204.125C365.239 206.602 364.773 209.42 364.773 212.58C364.773 215.784 365.239 218.591 366.17 221C367.125 223.386 368.523 225.25 370.364 226.591C372.227 227.909 374.511 228.568 377.216 228.568ZM414.341 239V186.636H426.307V195.364H426.852C427.807 192.341 429.443 190.011 431.761 188.375C434.102 186.716 436.773 185.886 439.773 185.886C440.455 185.886 441.216 185.92 442.057 185.989C442.92 186.034 443.636 186.114 444.205 186.227V197.58C443.682 197.398 442.852 197.239 441.716 197.102C440.602 196.943 439.523 196.864 438.477 196.864C436.227 196.864 434.205 197.352 432.409 198.33C430.636 199.284 429.239 200.614 428.216 202.318C427.193 204.023 426.682 205.989 426.682 208.216V239H414.341ZM466.534 240.057C463.216 240.057 460.227 239.466 457.568 238.284C454.932 237.08 452.841 235.307 451.295 232.966C449.773 230.625 449.011 227.739 449.011 224.307C449.011 221.352 449.557 218.909 450.648 216.977C451.739 215.045 453.227 213.5 455.114 212.341C457 211.182 459.125 210.307 461.489 209.716C463.875 209.102 466.341 208.659 468.886 208.386C471.955 208.068 474.443 207.784 476.352 207.534C478.261 207.261 479.648 206.852 480.511 206.307C481.398 205.739 481.841 204.864 481.841 203.682V203.477C481.841 200.909 481.08 198.92 479.557 197.511C478.034 196.102 475.841 195.398 472.977 195.398C469.955 195.398 467.557 196.057 465.784 197.375C464.034 198.693 462.852 200.25 462.239 202.045L450.716 200.409C451.625 197.227 453.125 194.568 455.216 192.432C457.307 190.273 459.864 188.659 462.886 187.591C465.909 186.5 469.25 185.955 472.909 185.955C475.432 185.955 477.943 186.25 480.443 186.841C482.943 187.432 485.227 188.409 487.295 189.773C489.364 191.114 491.023 192.943 492.273 195.261C493.545 197.58 494.182 200.477 494.182 203.955V239H482.318V231.807H481.909C481.159 233.261 480.102 234.625 478.739 235.898C477.398 237.148 475.705 238.159 473.659 238.932C471.636 239.682 469.261 240.057 466.534 240.057ZM469.739 230.989C472.216 230.989 474.364 230.5 476.182 229.523C478 228.523 479.398 227.205 480.375 225.568C481.375 223.932 481.875 222.148 481.875 220.216V214.045C481.489 214.364 480.83 214.659 479.898 214.932C478.989 215.205 477.966 215.443 476.83 215.648C475.693 215.852 474.568 216.034 473.455 216.193C472.341 216.352 471.375 216.489 470.557 216.602C468.716 216.852 467.068 217.261 465.614 217.83C464.159 218.398 463.011 219.193 462.17 220.216C461.33 221.216 460.909 222.511 460.909 224.102C460.909 226.375 461.739 228.091 463.398 229.25C465.057 230.409 467.17 230.989 469.739 230.989Z" fill="white"/>
<defs>
<filter id="filter0_d_0_1" x="308.009" y="134.75" width="223.981" height="186.016" filterUnits="userSpaceOnUse" color-interpolation-filters="sRGB">
<feFlood flood-opacity="0" result="BackgroundImageFix"/>
<feColorMatrix in="SourceAlpha" type="matrix" values="0 0 0 0 0 0 0 0 0 0 0 0 0 0 0 0 0 0 127 0" result="hardAlpha"/>
<feOffset dy="4"/>
<feGaussianBlur stdDeviation="2"/>
<feComposite in2="hardAlpha" operator="out"/>
<feColorMatrix type="matrix" values="0 0 0 0 0 0 0 0 0 0 0 0 0 0 0 0 0 0 0.25 0"/>
<feBlend mode="normal" in2="BackgroundImageFix" result="effect1_dropShadow_0_1"/>
<feBlend mode="normal" in="SourceGraphic" in2="effect1_dropShadow_0_1" result="shape"/>
</filter>
</defs>
</svg>
