<svg width="374" height="187" viewBox="0 0 374 187" fill="none" xmlns="http://www.w3.org/2000/svg">
<g filter="url(#filter0_d_0_1)">
<path d="M176.192 174.967C179.318 180.032 186.682 180.032 189.808 174.967L289.786 12.9512C293.075 7.62132 289.241 0.75 282.978 0.75H83.0219C76.7589 0.75 72.9248 7.62131 76.2138 12.9512L176.192 174.967Z" fill="#3694FF"/>
</g>
<path d="M0.886364 105V35.1818H46.2955V45.7841H13.5341V64.7386H43.9432V75.3409H13.5341V94.3977H46.5682V105H0.886364ZM70.9943 74.3182V105H58.6534V52.6364H70.4489V61.5341H71.0625C72.267 58.6023 74.1875 56.2727 76.8239 54.5455C79.483 52.8182 82.767 51.9545 86.6761 51.9545C90.2898 51.9545 93.4375 52.7273 96.1193 54.2727C98.8239 55.8182 100.915 58.0568 102.392 60.9886C103.892 63.9205 104.631 67.4773 104.608 71.6591V105H92.267V73.5682C92.267 70.0682 91.358 67.3295 89.5398 65.3523C87.7443 63.375 85.2557 62.3864 82.0739 62.3864C79.9148 62.3864 77.9943 62.8636 76.3125 63.8182C74.6534 64.75 73.3466 66.1023 72.392 67.875C71.4602 69.6477 70.9943 71.7955 70.9943 74.3182ZM139.926 125.727C135.494 125.727 131.688 125.125 128.506 123.92C125.324 122.739 122.767 121.148 120.835 119.148C118.903 117.148 117.562 114.932 116.812 112.5L127.926 109.807C128.426 110.83 129.153 111.841 130.108 112.841C131.063 113.864 132.347 114.705 133.96 115.364C135.597 116.045 137.653 116.386 140.131 116.386C143.631 116.386 146.528 115.534 148.824 113.83C151.119 112.148 152.267 109.375 152.267 105.511V95.5909H151.653C151.017 96.8636 150.085 98.1705 148.858 99.5114C147.653 100.852 146.051 101.977 144.051 102.886C142.074 103.795 139.585 104.25 136.585 104.25C132.562 104.25 128.915 103.307 125.642 101.42C122.392 99.5114 119.801 96.6705 117.869 92.8977C115.96 89.1023 115.006 84.3523 115.006 78.6477C115.006 72.8977 115.96 68.0455 117.869 64.0909C119.801 60.1136 122.403 57.1023 125.676 55.0568C128.949 52.9886 132.597 51.9545 136.619 51.9545C139.688 51.9545 142.21 52.4773 144.188 53.5227C146.188 54.5455 147.778 55.7841 148.96 57.2386C150.142 58.6705 151.04 60.0227 151.653 61.2955H152.335V52.6364H164.506V105.852C164.506 110.33 163.438 114.034 161.301 116.966C159.165 119.898 156.244 122.091 152.54 123.545C148.835 125 144.631 125.727 139.926 125.727ZM140.028 94.5682C142.642 94.5682 144.869 93.9318 146.71 92.6591C148.551 91.3864 149.949 89.5568 150.903 87.1705C151.858 84.7841 152.335 81.9205 152.335 78.5795C152.335 75.2841 151.858 72.3977 150.903 69.9205C149.972 67.4432 148.585 65.5227 146.744 64.1591C144.926 62.7727 142.688 62.0795 140.028 62.0795C137.278 62.0795 134.983 62.7955 133.142 64.2273C131.301 65.6591 129.915 67.625 128.983 70.125C128.051 72.6023 127.585 75.4205 127.585 78.5795C127.585 81.7841 128.051 84.5909 128.983 87C129.938 89.3864 131.335 91.25 133.176 92.5909C135.04 93.9091 137.324 94.5682 140.028 94.5682ZM177.153 105V52.6364H189.119V61.3636H189.665C190.619 58.3409 192.256 56.0114 194.574 54.375C196.915 52.7159 199.585 51.8864 202.585 51.8864C203.267 51.8864 204.028 51.9205 204.869 51.9886C205.733 52.0341 206.449 52.1136 207.017 52.2273V63.5795C206.494 63.3977 205.665 63.2386 204.528 63.1023C203.415 62.9432 202.335 62.8636 201.29 62.8636C199.04 62.8636 197.017 63.3523 195.222 64.3295C193.449 65.2841 192.051 66.6136 191.028 68.3182C190.006 70.0227 189.494 71.9886 189.494 74.2159V105H177.153ZM229.347 106.057C226.028 106.057 223.04 105.466 220.381 104.284C217.744 103.08 215.653 101.307 214.108 98.9659C212.585 96.625 211.824 93.7386 211.824 90.3068C211.824 87.3523 212.369 84.9091 213.46 82.9773C214.551 81.0455 216.04 79.5 217.926 78.3409C219.813 77.1818 221.938 76.3068 224.301 75.7159C226.688 75.1023 229.153 74.6591 231.699 74.3864C234.767 74.0682 237.256 73.7841 239.165 73.5341C241.074 73.2614 242.46 72.8523 243.324 72.3068C244.21 71.7386 244.653 70.8636 244.653 69.6818V69.4773C244.653 66.9091 243.892 64.9205 242.369 63.5114C240.847 62.1023 238.653 61.3977 235.79 61.3977C232.767 61.3977 230.369 62.0568 228.597 63.375C226.847 64.6932 225.665 66.25 225.051 68.0455L213.528 66.4091C214.438 63.2273 215.938 60.5682 218.028 58.4318C220.119 56.2727 222.676 54.6591 225.699 53.5909C228.722 52.5 232.063 51.9545 235.722 51.9545C238.244 51.9545 240.756 52.25 243.256 52.8409C245.756 53.4318 248.04 54.4091 250.108 55.7727C252.176 57.1136 253.835 58.9432 255.085 61.2614C256.358 63.5795 256.994 66.4773 256.994 69.9545V105H245.131V97.8068H244.722C243.972 99.2614 242.915 100.625 241.551 101.898C240.21 103.148 238.517 104.159 236.472 104.932C234.449 105.682 232.074 106.057 229.347 106.057ZM232.551 96.9886C235.028 96.9886 237.176 96.5 238.994 95.5227C240.813 94.5227 242.21 93.2045 243.188 91.5682C244.188 89.9318 244.688 88.1477 244.688 86.2159V80.0455C244.301 80.3636 243.642 80.6591 242.71 80.9318C241.801 81.2045 240.778 81.4432 239.642 81.6477C238.506 81.8523 237.381 82.0341 236.267 82.1932C235.153 82.3523 234.188 82.4886 233.369 82.6023C231.528 82.8523 229.881 83.2614 228.426 83.8295C226.972 84.3977 225.824 85.1932 224.983 86.2159C224.142 87.2159 223.722 88.5114 223.722 90.1023C223.722 92.375 224.551 94.0909 226.21 95.25C227.869 96.4091 229.983 96.9886 232.551 96.9886ZM295.926 52.6364V62.1818H264.972V52.6364H295.926ZM272.71 105V47.6932C272.71 44.1705 273.438 41.2386 274.892 38.8977C276.369 36.5568 278.347 34.8068 280.824 33.6477C283.301 32.4886 286.051 31.9091 289.074 31.9091C291.21 31.9091 293.108 32.0795 294.767 32.4205C296.426 32.7614 297.653 33.0682 298.449 33.3409L295.994 42.8864C295.472 42.7273 294.812 42.5682 294.017 42.4091C293.222 42.2273 292.335 42.1364 291.358 42.1364C289.062 42.1364 287.438 42.6932 286.483 43.8068C285.551 44.8977 285.085 46.4659 285.085 48.5114V105H272.71ZM305.591 105V52.6364H317.932V105H305.591ZM311.795 45.2045C309.841 45.2045 308.159 44.5568 306.75 43.2614C305.341 41.9432 304.636 40.3636 304.636 38.5227C304.636 36.6591 305.341 35.0795 306.75 33.7841C308.159 32.4659 309.841 31.8068 311.795 31.8068C313.773 31.8068 315.455 32.4659 316.841 33.7841C318.25 35.0795 318.955 36.6591 318.955 38.5227C318.955 40.3636 318.25 41.9432 316.841 43.2614C315.455 44.5568 313.773 45.2045 311.795 45.2045ZM345.69 106.057C342.372 106.057 339.384 105.466 336.724 104.284C334.088 103.08 331.997 101.307 330.452 98.9659C328.929 96.625 328.168 93.7386 328.168 90.3068C328.168 87.3523 328.713 84.9091 329.804 82.9773C330.895 81.0455 332.384 79.5 334.27 78.3409C336.156 77.1818 338.281 76.3068 340.645 75.7159C343.031 75.1023 345.497 74.6591 348.043 74.3864C351.111 74.0682 353.599 73.7841 355.509 73.5341C357.418 73.2614 358.804 72.8523 359.668 72.3068C360.554 71.7386 360.997 70.8636 360.997 69.6818V69.4773C360.997 66.9091 360.236 64.9205 358.713 63.5114C357.19 62.1023 354.997 61.3977 352.134 61.3977C349.111 61.3977 346.713 62.0568 344.94 63.375C343.19 64.6932 342.009 66.25 341.395 68.0455L329.872 66.4091C330.781 63.2273 332.281 60.5682 334.372 58.4318C336.463 56.2727 339.02 54.6591 342.043 53.5909C345.065 52.5 348.406 51.9545 352.065 51.9545C354.588 51.9545 357.099 52.25 359.599 52.8409C362.099 53.4318 364.384 54.4091 366.452 55.7727C368.52 57.1136 370.179 58.9432 371.429 61.2614C372.702 63.5795 373.338 66.4773 373.338 69.9545V105H361.474V97.8068H361.065C360.315 99.2614 359.259 100.625 357.895 101.898C356.554 103.148 354.861 104.159 352.815 104.932C350.793 105.682 348.418 106.057 345.69 106.057ZM348.895 96.9886C351.372 96.9886 353.52 96.5 355.338 95.5227C357.156 94.5227 358.554 93.2045 359.531 91.5682C360.531 89.9318 361.031 88.1477 361.031 86.2159V80.0455C360.645 80.3636 359.986 80.6591 359.054 80.9318C358.145 81.2045 357.122 81.4432 355.986 81.6477C354.849 81.8523 353.724 82.0341 352.611 82.1932C351.497 82.3523 350.531 82.4886 349.713 82.6023C347.872 82.8523 346.224 83.2614 344.77 83.8295C343.315 84.3977 342.168 85.1932 341.327 86.2159C340.486 87.2159 340.065 88.5114 340.065 90.1023C340.065 92.375 340.895 94.0909 342.554 95.25C344.213 96.4091 346.327 96.9886 348.895 96.9886Z" fill="#3694FF"/>
<path d="M140.114 125.727C135.682 125.727 131.875 125.125 128.693 123.92C125.511 122.739 122.955 121.148 121.023 119.148C119.091 117.148 117.75 114.932 117 112.5L128.114 109.807C128.614 110.83 129.341 111.841 130.295 112.841C131.25 113.864 132.534 114.705 134.148 115.364C135.784 116.045 137.841 116.386 140.318 116.386C143.818 116.386 146.716 115.534 149.011 113.83C151.307 112.148 152.455 109.375 152.455 105.511V95.5909H151.841C151.205 96.8636 150.273 98.1705 149.045 99.5114C147.841 100.852 146.239 101.977 144.239 102.886C142.261 103.795 139.773 104.25 136.773 104.25C132.75 104.25 129.102 103.307 125.83 101.42C122.58 99.5114 119.989 96.6705 118.057 92.8977C116.148 89.1023 115.193 84.3523 115.193 78.6477C115.193 72.8977 116.148 68.0455 118.057 64.0909C119.989 60.1136 122.591 57.1023 125.864 55.0568C129.136 52.9886 132.784 51.9545 136.807 51.9545C139.875 51.9545 142.398 52.4773 144.375 53.5227C146.375 54.5455 147.966 55.7841 149.148 57.2386C150.33 58.6705 151.227 60.0227 151.841 61.2955H152.523V52.6364H164.693V105.852C164.693 110.33 163.625 114.034 161.489 116.966C159.352 119.898 156.432 122.091 152.727 123.545C149.023 125 144.818 125.727 140.114 125.727ZM140.216 94.5682C142.83 94.5682 145.057 93.9318 146.898 92.6591C148.739 91.3864 150.136 89.5568 151.091 87.1705C152.045 84.7841 152.523 81.9205 152.523 78.5795C152.523 75.2841 152.045 72.3977 151.091 69.9205C150.159 67.4432 148.773 65.5227 146.932 64.1591C145.114 62.7727 142.875 62.0795 140.216 62.0795C137.466 62.0795 135.17 62.7955 133.33 64.2273C131.489 65.6591 130.102 67.625 129.17 70.125C128.239 72.6023 127.773 75.4205 127.773 78.5795C127.773 81.7841 128.239 84.5909 129.17 87C130.125 89.3864 131.523 91.25 133.364 92.5909C135.227 93.9091 137.511 94.5682 140.216 94.5682ZM177.341 105V52.6364H189.307V61.3636H189.852C190.807 58.3409 192.443 56.0114 194.761 54.375C197.102 52.7159 199.773 51.8864 202.773 51.8864C203.455 51.8864 204.216 51.9205 205.057 51.9886C205.92 52.0341 206.636 52.1136 207.205 52.2273V63.5795C206.682 63.3977 205.852 63.2386 204.716 63.1023C203.602 62.9432 202.523 62.8636 201.477 62.8636C199.227 62.8636 197.205 63.3523 195.409 64.3295C193.636 65.2841 192.239 66.6136 191.216 68.3182C190.193 70.0227 189.682 71.9886 189.682 74.2159V105H177.341ZM229.534 106.057C226.216 106.057 223.227 105.466 220.568 104.284C217.932 103.08 215.841 101.307 214.295 98.9659C212.773 96.625 212.011 93.7386 212.011 90.3068C212.011 87.3523 212.557 84.9091 213.648 82.9773C214.739 81.0455 216.227 79.5 218.114 78.3409C220 77.1818 222.125 76.3068 224.489 75.7159C226.875 75.1023 229.341 74.6591 231.886 74.3864C234.955 74.0682 237.443 73.7841 239.352 73.5341C241.261 73.2614 242.648 72.8523 243.511 72.3068C244.398 71.7386 244.841 70.8636 244.841 69.6818V69.4773C244.841 66.9091 244.08 64.9205 242.557 63.5114C241.034 62.1023 238.841 61.3977 235.977 61.3977C232.955 61.3977 230.557 62.0568 228.784 63.375C227.034 64.6932 225.852 66.25 225.239 68.0455L213.716 66.4091C214.625 63.2273 216.125 60.5682 218.216 58.4318C220.307 56.2727 222.864 54.6591 225.886 53.5909C228.909 52.5 232.25 51.9545 235.909 51.9545C238.432 51.9545 240.943 52.25 243.443 52.8409C245.943 53.4318 248.227 54.4091 250.295 55.7727C252.364 57.1136 254.023 58.9432 255.273 61.2614C256.545 63.5795 257.182 66.4773 257.182 69.9545V105H245.318V97.8068H244.909C244.159 99.2614 243.102 100.625 241.739 101.898C240.398 103.148 238.705 104.159 236.659 104.932C234.636 105.682 232.261 106.057 229.534 106.057ZM232.739 96.9886C235.216 96.9886 237.364 96.5 239.182 95.5227C241 94.5227 242.398 93.2045 243.375 91.5682C244.375 89.9318 244.875 88.1477 244.875 86.2159V80.0455C244.489 80.3636 243.83 80.6591 242.898 80.9318C241.989 81.2045 240.966 81.4432 239.83 81.6477C238.693 81.8523 237.568 82.0341 236.455 82.1932C235.341 82.3523 234.375 82.4886 233.557 82.6023C231.716 82.8523 230.068 83.2614 228.614 83.8295C227.159 84.3977 226.011 85.1932 225.17 86.2159C224.33 87.2159 223.909 88.5114 223.909 90.1023C223.909 92.375 224.739 94.0909 226.398 95.25C228.057 96.4091 230.17 96.9886 232.739 96.9886Z" fill="white"/>
<defs>
<filter id="filter0_d_0_1" x="71.0093" y="0.75" width="223.981" height="186.016" filterUnits="userSpaceOnUse" color-interpolation-filters="sRGB">
<feFlood flood-opacity="0" result="BackgroundImageFix"/>
<feColorMatrix in="SourceAlpha" type="matrix" values="0 0 0 0 0 0 0 0 0 0 0 0 0 0 0 0 0 0 127 0" result="hardAlpha"/>
<feOffset dy="4"/>
<feGaussianBlur stdDeviation="2"/>
<feComposite in2="hardAlpha" operator="out"/>
<feColorMatrix type="matrix" values="0 0 0 0 0 0 0 0 0 0 0 0 0 0 0 0 0 0 0.25 0"/>
<feBlend mode="normal" in2="BackgroundImageFix" result="effect1_dropShadow_0_1"/>
<feBlend mode="normal" in="SourceGraphic" in2="effect1_dropShadow_0_1" result="shape"/>
</filter>
</defs>
</svg>
