<svg width="1184" height="353" viewBox="0 0 1184 353" fill="none" xmlns="http://www.w3.org/2000/svg">
<rect width="351" height="353" rx="17" fill="#3694FF"/>
<path d="M166.925 258.777V292H47.877V258.777H166.925ZM60.7969 68.0547V292H18.4995V68.0547H60.7969ZM151.39 160.494V192.947H47.877V160.494H151.39ZM166.463 68.0547V101.431H47.877V68.0547H166.463ZM233.062 161.109V292H192.457V125.579H230.602L233.062 161.109ZM226.603 202.791H214.605C214.708 190.691 216.349 179.72 219.527 169.876C222.706 160.032 227.167 151.573 232.909 144.498C238.753 137.422 245.675 131.988 253.673 128.194C261.671 124.4 270.592 122.503 280.436 122.503C288.434 122.503 295.663 123.631 302.123 125.887C308.583 128.143 314.12 131.731 318.734 136.653C323.451 141.575 327.04 148.035 329.5 156.033C332.064 163.929 333.346 173.67 333.346 185.257V292H292.433V184.949C292.433 177.361 291.305 171.363 289.049 166.954C286.896 162.544 283.717 159.417 279.513 157.571C275.411 155.726 270.335 154.803 264.286 154.803C258.031 154.803 252.545 156.084 247.828 158.648C243.214 161.109 239.317 164.544 236.139 168.953C233.062 173.362 230.704 178.438 229.063 184.18C227.423 189.922 226.603 196.126 226.603 202.791Z" fill="white"/>
<path d="M505.492 109.579H542.406V270.924C542.406 285.998 539.125 298.764 532.562 309.223C526.103 319.784 517.028 327.782 505.338 333.217C493.649 338.754 480.062 341.522 464.579 341.522C457.914 341.522 450.685 340.6 442.892 338.754C435.202 336.908 427.768 333.986 420.59 329.987C413.515 326.09 407.619 321.015 402.902 314.76L421.205 290.766C426.742 297.226 432.997 302.096 439.97 305.377C446.942 308.761 454.479 310.453 462.58 310.453C470.783 310.453 477.755 308.915 483.498 305.839C489.342 302.865 493.803 298.456 496.879 292.611C500.058 286.869 501.647 279.794 501.647 271.386V147.57L505.492 109.579ZM393.058 194.789V191.559C393.058 178.844 394.596 167.309 397.672 156.952C400.749 146.493 405.158 137.521 410.9 130.036C416.745 122.55 423.769 116.757 431.972 112.655C440.277 108.554 449.608 106.503 459.965 106.503C470.937 106.503 480.165 108.502 487.65 112.501C495.238 116.5 501.493 122.191 506.415 129.574C511.439 136.957 515.336 145.724 518.104 155.875C520.976 165.924 523.18 176.999 524.718 189.098V197.865C523.283 209.657 520.976 220.475 517.797 230.319C514.721 240.163 510.619 248.776 505.492 256.159C500.365 263.439 494.008 269.079 486.42 273.078C478.832 277.077 469.911 279.076 459.657 279.076C449.403 279.076 440.175 276.974 431.972 272.77C423.769 268.566 416.745 262.67 410.9 255.082C405.158 247.494 400.749 238.573 397.672 228.319C394.596 218.065 393.058 206.889 393.058 194.789ZM433.664 191.559V194.789C433.664 201.967 434.381 208.683 435.817 214.938C437.252 221.193 439.457 226.73 442.431 231.549C445.404 236.266 449.147 239.958 453.659 242.624C458.17 245.29 463.554 246.623 469.809 246.623C478.217 246.623 485.087 244.879 490.419 241.393C495.854 237.804 499.955 232.934 502.724 226.781C505.595 220.526 507.44 213.502 508.261 205.709V181.562C507.748 175.409 506.62 169.718 504.877 164.489C503.236 159.259 500.929 154.748 497.956 150.954C494.982 147.16 491.188 144.186 486.574 142.033C481.959 139.879 476.474 138.803 470.116 138.803C463.964 138.803 458.581 140.187 453.966 142.956C449.352 145.622 445.558 149.364 442.584 154.184C439.611 159.003 437.355 164.591 435.817 170.949C434.381 177.306 433.664 184.176 433.664 191.559ZM619.618 143.571V276H579.013V109.579H617.465L619.618 143.571ZM670.221 108.502L669.606 146.339C667.35 145.929 664.787 145.622 661.916 145.417C659.147 145.211 656.532 145.109 654.071 145.109C647.816 145.109 642.331 145.98 637.614 147.724C632.897 149.364 628.949 151.774 625.771 154.953C622.694 158.131 620.336 162.028 618.695 166.642C617.055 171.154 616.132 176.281 615.927 182.023L607.16 180.946C607.16 170.385 608.236 160.592 610.39 151.569C612.543 142.545 615.67 134.65 619.772 127.882C623.874 121.115 629 115.885 635.153 112.194C641.408 108.4 648.585 106.503 656.686 106.503C658.942 106.503 661.352 106.708 663.915 107.118C666.581 107.426 668.683 107.887 670.221 108.502ZM778.964 240.624V163.874C778.964 158.234 777.99 153.363 776.042 149.262C774.093 145.16 771.12 141.981 767.121 139.726C763.122 137.47 758.046 136.342 751.894 136.342C746.459 136.342 741.691 137.265 737.589 139.11C733.59 140.956 730.514 143.571 728.361 146.955C726.208 150.236 725.131 154.03 725.131 158.336H684.372C684.372 151.466 686.012 144.955 689.293 138.803C692.575 132.548 697.24 127.011 703.29 122.191C709.442 117.27 716.774 113.424 725.285 110.656C733.898 107.887 743.537 106.503 754.201 106.503C766.813 106.503 778.041 108.656 787.885 112.963C797.831 117.167 805.624 123.524 811.264 132.035C817.006 140.546 819.877 151.261 819.877 164.181V236.779C819.877 245.084 820.39 252.211 821.415 258.158C822.543 264.003 824.184 269.079 826.337 273.385V276H784.962C783.014 271.796 781.527 266.464 780.502 260.004C779.477 253.441 778.964 246.981 778.964 240.624ZM784.655 174.64L784.962 198.788H759.276C752.919 198.788 747.331 199.455 742.511 200.788C737.692 202.018 733.744 203.864 730.668 206.325C727.592 208.683 725.285 211.554 723.747 214.938C722.208 218.219 721.439 221.962 721.439 226.166C721.439 230.268 722.362 233.959 724.208 237.24C726.156 240.521 728.925 243.136 732.514 245.084C736.205 246.93 740.512 247.853 745.434 247.853C752.611 247.853 758.866 246.417 764.198 243.546C769.53 240.573 773.683 236.984 776.657 232.78C779.63 228.576 781.22 224.577 781.425 220.783L793.114 238.317C791.679 242.521 789.525 246.981 786.654 251.698C783.783 256.415 780.092 260.824 775.58 264.926C771.068 269.027 765.634 272.411 759.276 275.077C752.919 277.743 745.536 279.076 737.128 279.076C726.361 279.076 716.723 276.923 708.212 272.616C699.701 268.31 692.985 262.414 688.063 254.928C683.141 247.443 680.68 238.932 680.68 229.396C680.68 220.578 682.321 212.785 685.602 206.017C688.883 199.25 693.754 193.559 700.214 188.944C706.674 184.228 714.672 180.69 724.208 178.332C733.847 175.871 744.87 174.64 757.277 174.64H784.655ZM907.855 276H866.942V100.351C866.942 86.6104 869.711 75.0234 875.248 65.5898C880.888 56.0537 888.937 48.8247 899.396 43.9028C909.958 38.981 922.519 36.52 937.079 36.52C945.59 36.52 953.793 37.3916 961.688 39.1348C969.687 40.7754 977.89 42.9287 986.298 45.5947L980.299 78.5098C974.865 76.7666 968.917 75.126 962.458 73.5879C956.1 72.0498 948.563 71.2808 939.848 71.2808C929.081 71.2808 921.032 73.7417 915.7 78.6636C910.47 83.5854 907.855 90.8145 907.855 100.351V276ZM941.078 109.579V138.803H841.872V109.579H941.078ZM1005.37 109.579V276H964.611V109.579H1005.37ZM1136.42 240.624V163.874C1136.42 158.234 1135.44 153.363 1133.49 149.262C1131.54 145.16 1128.57 141.981 1124.57 139.726C1120.57 137.47 1115.5 136.342 1109.34 136.342C1103.91 136.342 1099.14 137.265 1095.04 139.11C1091.04 140.956 1087.97 143.571 1085.81 146.955C1083.66 150.236 1082.58 154.03 1082.58 158.336H1041.82C1041.82 151.466 1043.46 144.955 1046.74 138.803C1050.03 132.548 1054.69 127.011 1060.74 122.191C1066.89 117.27 1074.23 113.424 1082.74 110.656C1091.35 107.887 1100.99 106.503 1111.65 106.503C1124.26 106.503 1135.49 108.656 1145.34 112.963C1155.28 117.167 1163.08 123.524 1168.71 132.035C1174.46 140.546 1177.33 151.261 1177.33 164.181V236.779C1177.33 245.084 1177.84 252.211 1178.87 258.158C1179.99 264.003 1181.63 269.079 1183.79 273.385V276H1142.41C1140.47 271.796 1138.98 266.464 1137.95 260.004C1136.93 253.441 1136.42 246.981 1136.42 240.624ZM1142.11 174.64L1142.41 198.788H1116.73C1110.37 198.788 1104.78 199.455 1099.96 200.788C1095.14 202.018 1091.2 203.864 1088.12 206.325C1085.04 208.683 1082.74 211.554 1081.2 214.938C1079.66 218.219 1078.89 221.962 1078.89 226.166C1078.89 230.268 1079.81 233.959 1081.66 237.24C1083.61 240.521 1086.38 243.136 1089.96 245.084C1093.66 246.93 1097.96 247.853 1102.88 247.853C1110.06 247.853 1116.32 246.417 1121.65 243.546C1126.98 240.573 1131.13 236.984 1134.11 232.78C1137.08 228.576 1138.67 224.577 1138.88 220.783L1150.57 238.317C1149.13 242.521 1146.98 246.981 1144.11 251.698C1141.23 256.415 1137.54 260.824 1133.03 264.926C1128.52 269.027 1123.08 272.411 1116.73 275.077C1110.37 277.743 1102.99 279.076 1094.58 279.076C1083.81 279.076 1074.17 276.923 1065.66 272.616C1057.15 268.31 1050.44 262.414 1045.51 254.928C1040.59 247.443 1038.13 238.932 1038.13 229.396C1038.13 220.578 1039.77 212.785 1043.05 206.017C1046.33 199.25 1051.21 193.559 1057.67 188.944C1064.12 184.228 1072.12 180.69 1081.66 178.332C1091.3 175.871 1102.32 174.64 1114.73 174.64H1142.11Z" fill="black"/>
</svg>
